<?xml version="1.0" standalone="no"?>
<!DOCTYPE svg PUBLIC "-//W3C//DTD SVG 20010904//EN"
 "http://www.w3.org/TR/2001/REC-SVG-20010904/DTD/svg10.dtd">
<svg version="1.0" xmlns="http://www.w3.org/2000/svg"
 width="1280.000000pt" height="1081.000000pt" viewBox="0 0 1280.000000 1081.000000"
 preserveAspectRatio="xMidYMid meet">
<metadata>
Created by potrace 1.15, written by Peter Selinger 2001-2017
</metadata>
<g transform="translate(0.000000,1081.000000) scale(0.100000,-0.100000)"
fill="#a54a76" stroke="none">
<path d="M10093 10796 c-87 -40 -152 -147 -238 -395 -67 -193 -243 -607 -623
-1461 -541 -1218 -1642 -3558 -1879 -3995 -283 -522 -566 -912 -924 -1275
-164 -166 -295 -276 -459 -385 -174 -116 -315 -186 -520 -257 -147 -50 -290
-126 -527 -276 -305 -194 -427 -251 -833 -390 -509 -174 -997 -284 -2170 -492
-387 -68 -914 -171 -1035 -201 -218 -55 -459 -153 -566 -231 -123 -88 -191
-169 -259 -309 -65 -133 -72 -174 -37 -215 27 -32 69 -48 152 -59 28 -4 99
-22 159 -41 155 -48 520 -137 774 -189 223 -45 393 -76 1040 -190 204 -36 515
-95 690 -131 1121 -231 1487 -286 2007 -300 836 -24 1606 167 2135 527 309
211 574 505 894 991 315 480 473 790 1073 2108 156 344 413 863 534 1080 231
416 553 884 725 1054 159 158 325 194 438 95 146 -128 252 -421 306 -844 87
-685 151 -1597 210 -3015 26 -632 47 -1073 65 -1399 9 -144 13 -278 9 -296 -8
-46 11 -99 44 -122 22 -15 47 -18 137 -18 61 0 143 6 184 14 l74 13 -7 207
c-9 274 -29 640 -71 1306 -79 1236 -94 1532 -102 2010 -6 377 1 541 33 785 84
643 273 1247 707 2262 183 428 520 1275 543 1368 25 98 25 329 0 440 -66 293
-254 662 -484 950 -158 197 -340 360 -692 622 -516 383 -843 562 -1160 634
-134 31 -302 41 -347 20z"/>
</g>
</svg>
